<svg width="180" height="137" viewBox="0 0 180 137" fill="none" xmlns="http://www.w3.org/2000/svg">
<g clip-path="url(#clip0_1125_4823)">
<path d="M179.83 62.96H0V64.3H179.83V62.96Z" fill="white"/>
<path d="M85.3904 59.4298V53.8498H75.8304V14.7598H85.7204V1.00977H61.9004V59.4298H85.3904Z" fill="white"/>
<path d="M138.4 59.4298H152.49V14.9298H160.37V1.00977H130.51V14.9298H138.4V59.4298Z" fill="white"/>
<path d="M33.89 59.43V16.61C33.89 13.42 34.39 12.25 36.4 12.25C38.41 12.25 39.09 13.42 39.09 16.61V59.43H53.35V15.6C53.35 4.7 47.35 0 36.57 0C26.17 0 19.46 4.7 19.46 15.6V59.43H33.89Z" fill="white"/>
<path d="M97.7395 59.43H120.49C118.863 57.9248 117.11 56.563 115.25 55.36C106.86 49.49 106.52 48.98 106.52 45.29V16.77C106.52 13.42 107.2 12.58 108.87 12.58C110.54 12.58 111.05 13.42 111.05 16.77V48.14H124.47V13.42C124.47 5.2 119.11 0 109 0C98.4695 0 92.7695 5.37 92.7695 14.93V47.47C92.7695 52.83 94.1295 56.08 97.7395 59.43Z" fill="white"/>
<path d="M152.49 67.8301H138.4V127.14H152.49V67.8301Z" fill="#83E1FF"/>
<path d="M53.35 112.21V67.8301H39.09V110.7C39.09 113.89 38.42 114.56 36.57 114.56C34.39 114.56 33.89 113.89 33.89 110.56V67.8301H19.46V112.21C19.46 123.11 25.46 127.64 34.56 128.14L37.75 136H52.84L47.31 125.6C51.17 123.11 53.35 118.92 53.35 112.21Z" fill="#83E1FF"/>
<path d="M101.53 67.8301C102.1 68.2401 102.7 68.6601 103.34 69.1001C110.05 73.7901 111.05 74.3001 111.05 78.9901V110.36C111.05 113.89 110.55 114.72 108.54 114.72C106.69 114.72 106.36 113.89 106.36 110.36V75.4701H92.4297V112C92.4297 123.74 97.2997 128.1 108.54 128.1C119.44 128.1 124.81 123.74 124.81 111.83V76.8101C124.81 72.8801 124.26 70.1501 122.92 67.8101L101.53 67.8301Z" fill="#83E1FF"/>
<path d="M75.8304 72.9501H85.3904V67.8301H61.9004V127.14H86.0604V113.22H75.8304V72.9501Z" fill="#83E1FF"/>
</g>
<defs>
<clipPath id="clip0_1125_4823">
<rect width="179.83" height="136.03" fill="white"/>
</clipPath>
</defs>
</svg>
