<?xml version="1.0" encoding="UTF-8"?>
<svg id="Vrstva_1" xmlns="http://www.w3.org/2000/svg" viewBox="0 0 2745.3 95">
  <defs>
    <style>
      .cls-1 {
        fill: #83e1ff;
      }

      .cls-2 {
        fill: #fff;
      }
    </style>
  </defs>
  <path class="cls-2" d="M2745.3,44H0v.9h2745.3v-.9Z"/>
  <path class="cls-2" d="M59.7,41.5v-3.9h-6.7V10.3h6.9V.7h-16.6v40.8s16.4,0,16.4,0Z"/>
  <path class="cls-2" d="M96.7,41.5h9.8V10.4h5.5V.7h-20.9v9.7h5.5v31.1h.1Z"/>
  <path class="cls-2" d="M23.7,41.5V11.6c0-2.2.3-3,1.8-3s1.9.8,1.9,3v29.9h10V10.9c0-7.6-4.2-10.9-11.7-10.9s-12,3.3-12,10.9v30.6h10.1-.1Z"/>
  <path class="cls-2" d="M68.3,41.5h15.9c-1.1-1.1-2.4-2-3.7-2.8-5.9-4.1-6.1-4.5-6.1-7V11.7c0-2.3.5-2.9,1.6-2.9s1.5.6,1.5,2.9v21.9h9.4V9.4c0-5.7-3.7-9.4-10.8-9.4s-11.3,3.8-11.3,10.4v22.7c0,3.7,1,6,3.5,8.4Z"/>
  <path class="cls-1" d="M106.6,47.4h-9.8v41.4h9.8v-41.4Z"/>
  <path class="cls-1" d="M37.3,78.4v-31h-10v30c0,2.2-.5,2.7-1.8,2.7s-1.9-.5-1.9-2.8v-29.9h-10.1v31c0,7.6,4.2,10.8,10.6,11.1l2.2,5.5h10.5l-3.9-7.3c2.7-1.7,4.2-4.7,4.2-9.4l.2.1Z"/>
  <path class="cls-1" d="M71,47.4c.4.3.8.6,1.3.9,4.7,3.3,5.4,3.6,5.4,6.9v21.9c0,2.5-.3,3-1.8,3s-1.5-.6-1.5-3v-24.4h-9.7v25.5c0,8.2,3.4,11.3,11.3,11.3s11.4-3,11.4-11.4v-24.5c0-2.7-.4-4.7-1.3-6.3h-14.9l-.2.1Z"/>
  <path class="cls-1" d="M53,51h6.7v-3.6h-16.4v41.4h16.9v-9.7h-7.1v-28.1h-.1Z"/>
</svg>